<?xml version="1.0" encoding="UTF-8" standalone="no"?>
<svg width="127px" height="17px" viewBox="0 0 127 17" version="1.1" xmlns="http://www.w3.org/2000/svg" xmlns:xlink="http://www.w3.org/1999/xlink">
    <!-- Generator: Sketch 40.3 (33839) - http://www.bohemiancoding.com/sketch -->
    <title>banner  电话 白 </title>
    <desc>Created with Sketch.</desc>
    <defs></defs>
    <g id="Page-1" stroke="none" stroke-width="1" fill="none" fill-rule="evenodd">
        <g id="banner--电话-白-" fill="#FFFFFF">
            <g id="Group-49-Copy" transform="translate(0.000000, 1.000000)">
                <text id="400－660-9728" font-family="STHeitiSC-Light, Heiti SC" font-size="15" font-weight="300">
                    <tspan x="16" y="13">400－660-9728</tspan>
                </text>
                <path d="M10.7365996,9.31985478 C11.1694883,9.83929606 10.9722583,10.6250386 10.8228508,10.7776987 C10.6734182,10.9327198 10.6842184,11.0071159 9.96792396,11.6570517 C9.24700798,12.3123248 7.80515091,11.8642405 7.15048058,11.6570517 C6.49577258,11.4490969 4.71658383,10.3112163 3.07136829,8.74741696 C1.40461506,7.16289625 0.542793634,5.18865016 0.18999,4.11596033 C-0.162009893,3.04018113 0.0583024236,2.65192508 0.18999,2.28820819 C0.321727804,1.92452896 0.562748966,1.61606911 1.27678293,1.20627536 C1.98920942,0.795778359 2.24722211,1.10811877 2.43053734,1.20627536 C2.61312418,1.30302541 3.41102326,2.00124833 3.68755962,2.66115553 C3.96253873,3.32101248 3.83159212,3.74532375 3.61899066,3.94559284 C3.40723061,4.14586194 3.25625331,4.32927763 3.08062384,4.45355574 C2.90501948,4.57557333 2.86806005,4.75281028 2.89424435,5.0950146 C2.91890909,5.43801012 4.15665419,6.77618489 4.40077729,7.02327177 C4.64418454,7.27107448 6.25546723,8.93771468 6.8146308,9.06583566 C7.37461066,9.19167101 7.57716539,8.94843957 7.63801092,8.88245764 C7.69888157,8.81724178 7.91915622,8.51720862 8.16870455,8.30850026 C8.41981011,8.10129892 9.08988962,8.1581132 9.25544724,8.27474324 C9.42105509,8.3914235 10.3037235,8.79807762 10.7365996,9.31985478 L10.7365996,9.31985478 Z" id="Shape"></path>
            </g>
        </g>
    </g>
</svg>