<?xml version="1.0" encoding="UTF-8" standalone="no"?>
<svg width="204px" height="26px" viewBox="0 0 204 26" version="1.1" xmlns="http://www.w3.org/2000/svg" xmlns:xlink="http://www.w3.org/1999/xlink">
    <!-- Generator: Sketch 40.3 (33839) - http://www.bohemiancoding.com/sketch -->
    <title>热门爆款</title>
    <desc>Created with Sketch.</desc>
    <defs>
        <linearGradient x1="50%" y1="0%" x2="50%" y2="85.3575415%" id="linearGradient-1">
            <stop stop-color="#FBDA61" offset="0%"></stop>
            <stop stop-color="#C42200" offset="100%"></stop>
        </linearGradient>
    </defs>
    <g id="Page-1" stroke="none" stroke-width="1" fill="none" fill-rule="evenodd">
        <g id="热门爆款">
            <g transform="translate(0.000000, -6.000000)">
                <text id="热门" font-family="MicrosoftYaHei, Microsoft YaHei" font-size="26" font-weight="normal" fill="#FFFFFF">
                    <tspan x="0" y="28">热门</tspan>
                </text>
                <text id="爆款" font-family="MicrosoftYaHei, Microsoft YaHei" font-size="14" font-weight="normal" fill="#FFFFFF">
                    <tspan x="52" y="19">爆款</tspan>
                </text>
                <path d="M87.2821505,13.2570309 C87.2317977,12.4000304 87.1781882,11.8081965 86.7275176,10.9880211 L86.7275176,10.9880211 C86.6260604,12.5453272 85.4361297,13.81467 85.1139717,15.3748569 L85.1139717,15.3748569 C84.6775803,17.4874221 85.440639,19.0343319 88.3388089,20.6681693 L88.3388089,20.6681693 C88.3369301,20.6661652 88.3384331,20.6664157 88.339811,20.6666662 L88.339811,20.6666662 C87.4304535,18.7726725 87.9156946,17.6872052 88.6154991,16.6644912 L88.6154991,16.6644912 C89.3820649,15.5435765 89.5797187,14.4339349 89.5797187,14.4339349 L89.5797187,14.4339349 C89.5797187,14.4339349 89.581347,14.4363148 89.5819733,14.4370663 L89.5819733,14.4370663 C89.5822238,14.435939 89.5828501,14.4324319 89.5828501,14.4324319 L89.5828501,14.4324319 C89.5828501,14.4324319 90.1844539,15.2147799 89.94509,16.4389054 L89.94509,16.4389054 C91.0067586,15.2531082 91.2070427,13.3683834 91.0464647,12.6457824 L91.0464647,12.6457824 C91.0478425,12.6467844 91.0492203,12.6479117 91.0505981,12.6489138 L91.0505981,12.6489138 C91.0503476,12.6474107 91.0499719,12.6456571 91.0497214,12.6444045 L91.0497214,12.6444045 C93.4565126,14.3264654 94.4853642,17.9682794 93.0991576,20.667543 L93.0991576,20.667543 C100.467709,16.4953958 94.9300225,10.2547734 93.9658029,9.55171226 L93.9658029,9.55171226 C94.2872094,10.2548986 94.348209,11.4454555 93.6986322,12.0231355 L93.6986322,12.0231355 C92.5993868,7.85437018 89.880959,7 89.880959,7 L89.880959,7 C90.202616,9.14976622 88.7160795,11.5004428 87.2821505,13.2570309" id="Page-1" fill="url(#linearGradient-1)"></path>
                <text id="HOT-PRODUCTS" font-family="MicrosoftYaHei, Microsoft YaHei" font-size="8" font-weight="normal" fill="#FFFFFF">
                    <tspan x="52" y="30">HOT PRODUCTS</tspan>
                </text>
            </g>
        </g>
    </g>
</svg>